<svg width="536" height="454" viewBox="0 0 536 454" fill="none" xmlns="http://www.w3.org/2000/svg">
    <path fill-rule="evenodd" clip-rule="evenodd" d="M147.419 153.042L201.061 68L260.626 86.4383V188.085L147.419 153.042ZM139.913 164.943L43 318.586L95.4524 334.822L142.472 260.289L142.474 260.286L142.475 260.286L208.476 280.717V369.809L260.626 385.951L260.626 202.309L139.913 164.943ZM387.788 153.042L334.146 68L274.581 86.4383V188.085L387.788 153.042ZM395.295 164.943L492.207 318.586L439.755 334.822L392.735 260.289L392.733 260.286L392.732 260.286L326.731 280.717V369.809L274.581 385.951L274.581 202.309L395.295 164.943Z" fill="black" style="fill:white;fill-opacity:1;"/>
</svg>
